<svg width="156" height="25" viewBox="0 0 156 25" fill="none" xmlns="http://www.w3.org/2000/svg">
<g clip-path="url(#clip0_10_5223)">
<path d="M26.9812 6.86182H25.1268V18.5221H26.9812V6.86182Z" fill="#1D1D1B"/>
<path d="M13.3052 6.28601L11.4044 8.39734V25L13.3515 23.4165L13.3052 6.28601Z" fill="#1D1D1B"/>
<path d="M36.0678 6.81386C34.3525 6.86184 31.6173 8.63727 31.5245 10.3167V6.81386H29.6702V18.4741H31.5245V10.7966C31.9418 8.49332 34.7234 8.44533 35.5115 8.39735C35.5115 8.39735 36.3459 8.34936 36.6241 8.30138C36.8559 8.2534 37.0413 8.20541 37.0877 8.10944L37.9222 6.95781C37.4586 6.90983 36.8095 6.76587 36.0678 6.81386Z" fill="#1D1D1B"/>
<path d="M1.06627 8.39734C1.06627 7.19772 2.59614 6.71787 4.40416 6.71787C6.95394 6.76586 8.9474 8.68524 8.9474 10.7006H9.08648V7.19772C7.55661 6.6219 6.21218 6.334 4.96047 6.28601C0.880832 6.334 0 8.25338 0 9.50098C0 10.7486 0.278157 11.6603 2.87429 12.8599C3.61605 13.1958 4.54324 13.4837 5.51679 13.8196C6.3049 14.1075 8.4838 14.8273 8.4838 16.0269C8.4838 17.4185 7.23209 18.3781 4.96047 18.3781C2.59614 18.3781 0.509955 16.4108 0.463596 13.5317L0.324517 13.4837L0.370877 18.2342C1.48351 18.3781 2.31798 18.4741 2.87429 18.5221C3.43061 18.5701 4.126 18.6181 4.96047 18.6181C8.252 18.6181 9.64279 16.8906 9.64279 14.6353C9.64279 12.716 7.04666 11.9482 5.19227 11.3244C3.33789 10.7486 1.06627 10.2208 1.06627 8.39734Z" fill="#1D1D1B"/>
<path d="M103.521 8.44531C103.521 7.24569 105.051 6.76585 106.859 6.76585C109.409 6.81383 111.402 8.73322 111.402 10.7486H111.541V7.24569C110.011 6.66988 108.667 6.38197 107.415 6.33398C103.336 6.33398 102.455 8.20539 102.455 9.50097C102.455 10.7486 102.733 11.6603 105.329 12.8599C106.071 13.1958 106.998 13.4837 107.971 13.8196C108.76 14.1075 110.939 14.8273 110.939 16.0269C110.939 17.4184 109.687 18.3781 107.415 18.3781C105.051 18.3781 102.965 16.4108 102.918 13.5317L102.779 13.4837L102.826 18.2342C103.938 18.3781 104.773 18.4741 105.329 18.5221C105.885 18.5701 106.581 18.6181 107.415 18.6181C110.707 18.6181 112.098 16.8906 112.098 14.6353C112.098 12.7159 109.501 11.9482 107.647 11.3244C105.839 10.7486 103.521 10.2207 103.521 8.44531Z" fill="#1D1D1B"/>
<path d="M41.26 6.86182H39.4056V18.5221H41.26V6.86182Z" fill="#1D1D1B"/>
<path d="M51.5054 15.4991C50.5782 17.0826 48.9093 18.6181 46.9158 18.6181C45.0151 18.6181 44.1806 17.6584 44.1343 15.4031V8.15743H42.6508L45.9423 4.07874L45.9886 6.81386H50.671L49.512 8.15743H45.9886L45.8959 15.4031C45.8959 17.0346 46.1741 18.0903 48.1212 18.0903C49.0947 18.0903 50.161 16.9866 50.6246 15.4031L51.6445 15.1632L51.5054 15.4991Z" fill="#1D1D1B"/>
<path d="M85.3017 3.16695C85.5335 2.92702 85.8116 2.83105 86.1825 2.83105C86.5534 2.83105 86.8315 2.92702 87.0633 3.16695C87.2951 3.40687 87.4342 3.69478 87.4342 4.07866C87.4342 4.41455 87.2951 4.70246 87.0633 4.94238C86.7852 5.1823 86.507 5.27827 86.1825 5.27827C85.8116 5.27827 85.5335 5.1823 85.3017 4.94238C85.0699 4.70246 84.9308 4.41455 84.9308 4.07866C84.9308 3.74276 85.0699 3.45486 85.3017 3.16695ZM85.1626 6.90975H87.1097V18.522H85.1626V6.90975Z" fill="#1D1D1B"/>
<path d="M89.7058 18.4741V6.90979H91.6993V8.7332C92.3483 7.96545 93.0437 7.38963 93.9245 6.90979C94.759 6.47792 95.5935 6.28599 96.4279 6.28599C97.8187 6.238 99.3486 6.90979 99.9513 7.82149C100.369 8.49328 100.6 9.26103 100.647 10.1727V18.5701H98.7459V10.5566C98.7459 9.50096 98.5605 7.10173 96.6134 6.8618C95.8716 6.76583 95.0835 6.8618 94.1563 7.19769C93.2755 7.58157 92.441 8.20537 91.6993 9.02111L91.6529 18.4741H89.7058Z" fill="#1D1D1B"/>
<path d="M114.833 3.16695C115.064 2.92702 115.343 2.83105 115.714 2.83105C116.084 2.83105 116.363 2.92702 116.594 3.16695C116.826 3.40687 116.965 3.69478 116.965 4.07866C116.965 4.41455 116.826 4.70246 116.594 4.94238C116.316 5.1823 116.038 5.27827 115.714 5.27827C115.343 5.27827 115.064 5.1823 114.833 4.94238C114.601 4.70246 114.462 4.41455 114.462 4.07866C114.508 3.74276 114.601 3.45486 114.833 3.16695ZM114.694 6.90975H116.641V18.522H114.694V6.90975Z" fill="#1D1D1B"/>
<path d="M125.125 16.5067C122.714 16.5067 121.508 14.2994 121.508 11.3724C121.508 8.1574 122.76 6.57391 125.264 6.57391C127.582 6.57391 128.833 9.11709 128.833 11.6603C128.787 14.8273 127.489 16.5067 125.125 16.5067ZM133.237 6.38197C129.343 6.38197 126.747 6.33398 125.449 6.33398C124.522 6.33398 123.826 6.52592 123.826 6.52592C121.184 7.10174 119.33 9.16508 119.33 11.6603C119.33 14.4914 120.952 16.1228 123.456 16.6027C124.336 16.6987 124.846 16.6987 124.846 16.6987C128.416 16.6987 131.012 14.7313 131.012 11.6123C131.012 9.98082 130.363 8.58926 129.158 7.67755H132.357L133.237 6.38197Z" fill="#1D1D1B"/>
<path d="M124.615 23.7044C122.853 23.4165 121.694 22.7927 121.045 22.0249C120.349 21.1132 120.674 20.2495 122.065 19.3378C123.177 19.5297 124.893 19.6737 127.211 19.7697C128.601 19.8176 131.939 19.9136 132.496 20.8253C132.913 21.5931 131.615 24.952 124.615 23.7044ZM131.8 19.2418C131.198 18.8579 130.41 18.57 129.436 18.4741C127.582 18.2821 123.548 18.4261 121.879 17.8023L124.568 16.5547H124.151L119.979 18.4741C120.349 18.81 120.906 19.0499 121.694 19.2418C119.33 21.1132 118.495 22.5048 119.144 23.4645C119.793 24.4242 121.648 25.1439 125.125 24.904C125.866 24.856 126.933 24.7601 127.721 24.6161C128.509 24.4722 129.019 24.3282 129.853 23.9923C130.641 23.7044 131.337 23.3205 131.847 22.7447C132.357 22.2169 132.588 21.785 132.588 20.8253C132.727 20.2495 132.403 19.6257 131.8 19.2418Z" fill="#1D1D1B"/>
<path d="M24.8024 4.03069C24.8024 4.75046 25.3587 5.27829 26.0541 5.27829C26.7495 5.27829 27.3058 4.70248 27.3058 4.03069C27.3058 3.31092 26.7495 2.73511 26.0541 2.73511C25.3587 2.78309 24.8024 3.35891 24.8024 4.03069Z" fill="#1D1D1B"/>
<path d="M39.0812 4.12664C39.0812 4.84641 39.6375 5.37424 40.3329 5.37424C41.0283 5.37424 41.5846 4.79843 41.5846 4.12664C41.5846 3.40687 41.0283 2.83105 40.3329 2.83105C39.5911 2.83105 39.0812 3.40687 39.0812 4.12664Z" fill="#1D1D1B"/>
<path d="M155.815 15.355C154.887 16.9385 153.219 18.474 151.225 18.474C149.324 18.474 148.49 17.5143 148.443 15.2591V8.01339H146.96L150.251 3.93469L150.298 6.66982H154.98L153.821 8.01339H150.205L150.159 15.2591C150.159 16.8905 150.437 17.9462 152.384 17.9462C153.358 17.9462 154.424 16.8426 154.887 15.2591L155.907 15.0191L155.815 15.355Z" fill="#1D1D1B"/>
<path d="M136.761 0L134.814 1.77543V18.4741H136.761V0Z" fill="#1D1D1B"/>
<path d="M77.8377 2.11129C74.778 2.0633 72.8309 2.49516 71.5792 6.86177H70.9765L70.0029 8.15735H71.4401L71.4864 18.4261H73.2945L73.2481 8.20534H75.5661L76.7251 6.86177C76.7251 6.86177 73.9899 6.86177 73.2481 6.86177C73.2945 3.07098 73.8971 2.92702 75.3343 2.87904C76.3078 2.87904 77.5595 3.40687 78.9503 4.03067L80.2948 2.73509C80.2948 2.73509 78.9967 2.20726 77.8377 2.11129Z" fill="#1D1D1B"/>
<path d="M17.8948 6.38196C16.1331 6.38196 14.4178 7.29367 13.3052 8.82917V9.11708C14.0933 7.91747 15.4841 7.1977 16.7358 7.1977C19.6101 7.1977 21.0472 10.0768 21.0936 12.8119C21.0936 16.5067 18.8683 18.2822 17.1067 18.2822C15.2523 18.2822 13.537 17.5144 13.3052 16.6027V17.8983C14.0006 18.3781 14.9741 18.714 16.1331 18.714C19.471 18.714 22.948 15.9789 22.948 12.0441C22.948 8.4453 20.5373 6.38196 17.8948 6.38196Z" fill="#1D1D1B"/>
<path d="M60.1747 17.2265C58.0886 15.451 58.8767 12.0441 60.7311 9.78884C62.91 7.1017 65.3207 6.142 67.4068 7.91744C69.4003 9.5969 68.6122 13.0518 66.7114 15.3551C64.5325 18.0422 62.0755 18.8579 60.1747 17.2265ZM67.7777 7.91744C64.9961 5.56619 61.1019 6.23797 58.9694 8.87713C56.6978 11.6602 57.1614 15.0671 59.7111 17.2265C62.4464 19.5297 66.526 18.666 68.4267 16.3147C70.7447 13.4357 70.3275 10.0288 67.7777 7.91744Z" fill="#1D1D1B"/>
<path d="M144.92 7.72555C144.317 6.81384 142.788 6.14205 141.397 6.19004C140.562 6.23802 139.728 6.38198 138.893 6.81384C138.013 7.2457 137.317 7.8695 136.668 8.58927V8.92516C137.41 8.10943 138.244 7.48563 139.125 7.10175C140.006 6.76586 140.84 6.6219 141.582 6.76586C143.529 7.00578 143.715 9.40501 143.715 10.4607V18.4261H145.615V10.0768C145.615 9.16509 145.384 8.39733 144.92 7.72555Z" fill="#1D1D1B"/>
</g>
<defs>
<clipPath id="clip0_10_5223">
<rect width="156" height="25" fill="white"/>
</clipPath>
</defs>
</svg>
