<?xml version="1.0" encoding="utf-8"?>
<!-- Generator: Adobe Illustrator 24.3.0, SVG Export Plug-In . SVG Version: 6.00 Build 0)  -->
<svg version="1.1" id="Layer_1" xmlns="http://www.w3.org/2000/svg" xmlns:xlink="http://www.w3.org/1999/xlink" x="0px" y="0px"
	 viewBox="0 0 23 29" style="enable-background:new 0 0 23 29;" xml:space="preserve">
<style type="text/css">
	.st0{fill:#9FC64F;stroke:#9FC64F;stroke-width:0.3;stroke-miterlimit:10;}
	.st1{fill:none;}
	.st2{fill:#FFFFFF;}
</style>
<path class="st0" d="M6.9,6.8c-0.2-2.8,2-4.9,4.3-5.1C12.7,1.5,14,2,15.1,3s1.6,2.3,1.5,3.8c0.4,0,0.8,0,1.2,0
	c1.1,0,1.8,0.7,1.9,1.8c0.1,1.9,0.3,3.9,0.4,5.8c0.1,1.7,0.3,3.3,0.4,5c0,0.5,0.1,0.9,0.1,1.5c0,0.8-0.5,1.5-1.2,1.7
	c-0.2,0.1-0.5,0.1-0.7,0.1c-4.6,0-9.3,0-13.9,0c-1.2,0-2-0.8-1.9-2c0.1-1.4,0.2-2.8,0.3-4.2c0.1-1.5,0.2-2.9,0.3-4.4
	c0.1-1.2,0.1-2.4,0.3-3.5c0.1-1,0.8-1.7,1.8-1.7C6.1,6.8,6.5,6.8,6.9,6.8z M15,6.8c0.2-1.1-0.5-2.4-1.6-3.1C12.3,3,10.8,3,9.8,3.8
	c-1,0.7-1.5,2-1.3,2.9C10.7,6.8,12.8,6.8,15,6.8z"/>
<rect x="9.8" y="10.8" class="st1" width="3.1" height="1.1"/>
<rect x="6.7" y="6.8" class="st2" width="2" height="3.6"/>
<rect x="6.7" y="6.8" class="st2" width="2" height="3.6"/>
<rect x="14.8" y="6.8" class="st2" width="2" height="3.6"/>
</svg>
