<svg width="18" height="23" viewBox="0 0 18 23" fill="none" xmlns="http://www.w3.org/2000/svg">
<path d="M9.16706 7.2002H3.14325C2.47659 7.2002 1.92897 7.75582 1.89325 8.46297L1.42897 18.5399C1.35754 20.1942 2.59563 21.5706 4.14325 21.5706H9.21468" fill="#1D1D1B"/>
<path d="M9.16706 7.2002H3.14325C2.47659 7.2002 1.92897 7.75582 1.89325 8.46297L1.42897 18.5399C1.35754 20.1942 2.59563 21.5706 4.14325 21.5706H9.21468" stroke="#1D1D1B" stroke-width="0.910728" stroke-miterlimit="10"/>
<path d="M9.16675 7.2002H15.2025C15.8691 7.2002 16.4167 7.75582 16.4525 8.46297L16.9167 18.5399C16.9882 20.1942 15.7501 21.5706 14.2025 21.5706H9.21437" fill="#1D1D1B"/>
<path d="M9.16675 7.2002H15.2025C15.8691 7.2002 16.4167 7.75582 16.4525 8.46297L16.9167 18.5399C16.9882 20.1942 15.7501 21.5706 14.2025 21.5706H9.21437" stroke="#1D1D1B" stroke-width="0.910728" stroke-miterlimit="10"/>
<path d="M4.88049 8.6271V5.98789C4.88049 3.47497 6.79716 1.44189 9.16621 1.44189C11.5353 1.44189 13.4519 3.47497 13.4519 5.98789V8.6271" stroke="#1D1D1B" stroke-width="0.910728" stroke-miterlimit="10" stroke-linecap="round"/>
</svg>
