<svg width="22" height="22" viewBox="0 0 22 22" fill="none" xmlns="http://www.w3.org/2000/svg">
<path d="M11.0003 4.72949C8.74825 4.72949 6.91602 6.56172 6.91602 8.8138C6.91602 11.0659 8.74825 12.8981 11.0003 12.8981C13.2524 12.8981 15.0846 11.0659 15.0846 8.8138C15.0846 6.56172 13.2524 4.72949 11.0003 4.72949ZM11.0003 11.1784C9.69648 11.1784 8.63571 10.1176 8.63571 8.8138C8.63571 7.50996 9.69648 6.44919 11.0003 6.44919C12.3042 6.44919 13.3649 7.50996 13.3649 8.8138C13.3649 10.1176 12.3042 11.1784 11.0003 11.1784Z" fill="#1D1D1B"/>
<path d="M10.9991 0C6.13927 0 2.18555 3.95377 2.18555 8.81354V9.05717C2.18555 11.515 3.59466 14.3791 6.37388 17.5698C8.3886 19.8829 10.3752 21.4958 10.4587 21.5634L10.9991 22L11.5395 21.5634C11.623 21.4958 13.6096 19.883 15.6243 17.5699C18.4035 14.3791 19.8126 11.515 19.8126 9.05721V8.81358C19.8126 3.95377 15.8589 0 10.9991 0ZM18.0929 9.05721C18.0929 13.2108 12.7411 18.2388 10.9991 19.7651C9.25657 18.2383 3.90524 13.2105 3.90524 9.05721V8.81358C3.90524 4.90205 7.08755 1.71974 10.9991 1.71974C14.9106 1.71974 18.0929 4.90205 18.0929 8.81358V9.05721Z" fill="#1D1D1B"/>
</svg>
