<svg width="23" height="13" viewBox="0 0 23 13" fill="none" xmlns="http://www.w3.org/2000/svg">
<g clip-path="url(#clip0_128_854)">
<path fill-rule="evenodd" clip-rule="evenodd" d="M21.3485 0.880275C21.499 0.372856 21.3485 0 20.6325 0H18.2649C17.6629 0 17.3853 0.322093 17.2348 0.677265C17.2348 0.677265 16.0308 3.64563 14.3251 5.57378C13.7733 6.13192 13.5224 6.30951 13.2214 6.30951C13.0709 6.30951 12.8452 6.13192 12.8452 5.62455V0.880275C12.8452 0.271372 12.6784 0 12.1767 0H8.45607C8.07987 0 7.85361 0.282606 7.85361 0.550442C7.85361 1.12767 8.70641 1.26079 8.79431 2.88453V6.41104C8.79431 7.18421 8.65626 7.32439 8.35525 7.32439C7.55261 7.32439 5.60017 4.34276 4.4422 0.930995C4.21526 0.267867 3.98765 0 3.38255 0H1.0149C0.338427 0 0.203125 0.322093 0.203125 0.677265C0.203125 1.31155 1.00581 4.4575 3.94056 8.61825C5.89705 11.4597 8.6536 13 11.162 13C12.667 13 12.8531 12.6579 12.8531 12.0686V9.92105C12.8531 9.23684 12.9957 9.10029 13.4723 9.10029C13.8234 9.10029 14.4255 9.27788 15.8302 10.6479C17.4355 12.2716 17.7002 13 18.6031 13H20.9708C21.6473 13 21.9855 12.6579 21.7904 11.9828C21.5768 11.3099 20.8104 10.3337 19.7934 9.1764C19.2415 8.51677 18.4138 7.80643 18.1629 7.45117C17.8117 6.99456 17.9121 6.79155 18.1629 6.38565C18.1629 6.38565 21.0475 2.27562 21.3485 0.880275Z" fill="#1D1D1B"/>
</g>
<defs>
<clipPath id="clip0_128_854">
<rect width="23" height="13" fill="white"/>
</clipPath>
</defs>
</svg>
