<svg width="39" height="39" viewBox="0 0 39 39" fill="none" xmlns="http://www.w3.org/2000/svg">
<path d="M36.4205 17.9428C31.3061 9.36669 26.1 9.49656 25.8999 9.50358H9.85062C9.19793 9.5043 8.57217 9.76387 8.11061 10.2254C7.64905 10.6868 7.38938 11.3126 7.38855 11.9653V13.0573H3.18396C3.05467 13.0573 2.93067 13.1086 2.83925 13.2C2.74782 13.2915 2.69646 13.4155 2.69646 13.5448C2.69646 13.674 2.74782 13.798 2.83925 13.8895C2.93067 13.9809 3.05467 14.0323 3.18396 14.0323H7.38855V16.8929H3.91092C3.78163 16.8929 3.65763 16.9443 3.56621 17.0357C3.47478 17.1271 3.42342 17.2511 3.42342 17.3804C3.42342 17.5097 3.47478 17.6337 3.56621 17.7251C3.65763 17.8165 3.78163 17.8679 3.91092 17.8679H7.38855V24.0798C7.38958 24.7163 7.64284 25.3264 8.09285 25.7765C8.54287 26.2266 9.15293 26.4799 9.78939 26.4811H10.9738C11.1093 27.3216 11.5396 28.0864 12.1877 28.6384C12.8358 29.1904 13.6594 29.4936 14.5107 29.4936C15.3621 29.4936 16.1856 29.1904 16.8337 28.6384C17.4818 28.0864 17.9122 27.3216 18.0476 26.4811H27.2189C27.3544 27.3221 27.7849 28.0873 28.4334 28.6397C29.0819 29.1921 29.9059 29.4954 30.7577 29.4954C31.6096 29.4954 32.4336 29.1921 33.0821 28.6397C33.7305 28.0873 34.1611 27.3221 34.2966 26.4811H35.2326C35.8695 26.4803 36.4802 26.227 36.9306 25.7766C37.3809 25.3262 37.6343 24.7156 37.635 24.0787C37.6354 21.3089 37.8195 20.284 36.4205 17.9428ZM34.8949 17.6983H28.4263C26.9529 17.6983 26.8636 16.3036 26.8605 16.0267V10.8124C28.3943 11.1849 31.599 12.5694 34.8949 17.6983ZM16.9264 25.9117C16.9264 26.3891 16.7848 26.8559 16.5195 27.2529C16.2543 27.6499 15.8772 27.9593 15.4361 28.142C14.995 28.3247 14.5096 28.3725 14.0413 28.2794C13.573 28.1862 13.1429 27.9563 12.8053 27.6187C12.4676 27.2811 12.2377 26.8509 12.1446 26.3826C12.0514 25.9143 12.0992 25.4289 12.282 24.9878C12.4647 24.5467 12.7741 24.1697 13.1711 23.9044C13.5681 23.6391 14.0348 23.4976 14.5123 23.4976C15.1524 23.4981 15.7661 23.7526 16.2187 24.2052C16.6714 24.6578 16.9259 25.2716 16.9264 25.9117ZM33.1738 25.9117C33.1746 26.3902 33.0333 26.8583 32.7679 27.2565C32.5025 27.6547 32.1249 27.9653 31.6829 28.1487C31.2409 28.3322 30.7544 28.3805 30.285 28.2873C29.8156 28.1941 29.3844 27.9637 29.046 27.6253C28.7076 27.2869 28.4772 26.8557 28.3841 26.3863C28.2909 25.9169 28.3391 25.4304 28.5226 24.9884C28.7061 24.5464 29.0166 24.1688 29.4149 23.9034C29.8131 23.638 30.2811 23.4968 30.7597 23.4976C31.3998 23.4981 32.0135 23.7526 32.4661 24.2052C32.9188 24.6578 33.1733 25.2716 33.1738 25.9117ZM36.4654 24.0787C36.465 24.4054 36.335 24.7186 36.104 24.9496C35.8729 25.1807 35.5597 25.3106 35.233 25.3111H34.2931C34.1488 24.4781 33.715 23.7228 33.0682 23.1784C32.4214 22.634 31.6031 22.3355 30.7577 22.3355C29.9123 22.3355 29.0941 22.634 28.4473 23.1784C27.8005 23.7228 27.3667 24.4781 27.2224 25.3111C17.5441 25.3111 18.0574 25.3501 18.0457 25.3111C17.9038 24.4766 17.4712 23.7193 16.8245 23.1733C16.1778 22.6272 15.3587 22.3277 14.5123 22.3277C13.6659 22.3277 12.8468 22.6272 12.2001 23.1733C11.5534 23.7193 11.1208 24.4766 10.9789 25.3111H9.78939C9.46266 25.3106 9.14944 25.1807 8.91841 24.9496C8.68738 24.7186 8.5574 24.4054 8.55699 24.0787V17.8695H13.2448C13.3741 17.8695 13.4981 17.8181 13.5895 17.7267C13.6809 17.6353 13.7323 17.5113 13.7323 17.382C13.7323 17.2527 13.6809 17.1287 13.5895 17.0373C13.4981 16.9458 13.3741 16.8945 13.2448 16.8945H8.55855V14.0338H9.9021C10.0314 14.0338 10.1554 13.9825 10.2468 13.891C10.3382 13.7996 10.3896 13.6756 10.3896 13.5463C10.3896 13.417 10.3382 13.293 10.2468 13.2016C10.1554 13.1102 10.0314 13.0588 9.9021 13.0588H8.55855V11.9668C8.55907 11.6243 8.69537 11.296 8.93758 11.0539C9.17979 10.8118 9.50814 10.6755 9.85062 10.6751H25.6905V16.0267C25.6905 17.0095 26.2622 18.8683 28.4263 18.8683C36.3753 18.8683 35.5754 18.8047 35.6971 19.0168C36.6163 20.6194 36.4654 21.8128 36.4654 24.0798V24.0787ZM1.95039 20.6888C1.8211 20.6888 1.6971 20.6374 1.60568 20.546C1.51425 20.4546 1.46289 20.3306 1.46289 20.2013C1.46289 20.072 1.51425 19.948 1.60568 19.8566C1.6971 19.7651 1.8211 19.7138 1.95039 19.7138H5.87223C6.00152 19.7138 6.12552 19.7651 6.21694 19.8566C6.30837 19.948 6.35973 20.072 6.35973 20.2013C6.35973 20.3306 6.30837 20.4546 6.21694 20.546C6.12552 20.6374 6.00152 20.6888 5.87223 20.6888H1.95039Z" fill="#282828"/>
</svg>
