<svg width="33" height="33" viewBox="0 0 33 33" fill="none" xmlns="http://www.w3.org/2000/svg">
<path d="M4.64069 26.8126C4.57283 26.813 4.50556 26.8 4.44273 26.7743C4.37991 26.7487 4.32277 26.7109 4.27459 26.6631C4.22626 26.6151 4.1879 26.5581 4.16173 26.4953C4.13555 26.4324 4.12207 26.3651 4.12207 26.297C4.12207 26.2289 4.13555 26.1615 4.16173 26.0987C4.1879 26.0359 4.22626 25.9788 4.27459 25.9309L19.6918 10.5137C19.7889 10.4166 19.9206 10.3621 20.0579 10.3621C20.1952 10.3621 20.3269 10.4166 20.424 10.5137C20.5211 10.6108 20.5756 10.7425 20.5756 10.8798C20.5756 11.0171 20.5211 11.1488 20.424 11.2459L5.00678 26.6631C4.9586 26.7109 4.90146 26.7487 4.83864 26.7743C4.77581 26.8 4.70854 26.813 4.64069 26.8126Z" fill="#282828"/>
<path d="M9.84832 21.6046C9.78046 21.605 9.71319 21.592 9.65037 21.5663C9.58754 21.5407 9.5304 21.5029 9.48222 21.4551C8.85938 20.8326 8.36529 20.0935 8.02819 19.28C7.69109 18.4665 7.51758 17.5945 7.51758 16.7139C7.51758 15.8333 7.69109 14.9614 8.02819 14.1479C8.36529 13.3343 8.85938 12.5952 9.48222 11.9727L14.2621 7.21867C14.3189 7.16222 14.3881 7.11978 14.4642 7.09472C14.5402 7.06966 14.6211 7.06267 14.7004 7.0743C14.7791 7.08607 14.8541 7.11595 14.9194 7.16157C14.9847 7.2072 15.0386 7.26733 15.0768 7.33727L15.9843 8.99758L16.1493 5.49649C16.1564 5.36769 16.2116 5.24627 16.3039 5.15617L19.6916 1.76336C19.7395 1.71503 19.7966 1.67667 19.8594 1.65049C19.9222 1.62432 19.9896 1.61084 20.0577 1.61084C20.1258 1.61084 20.1932 1.62432 20.256 1.65049C20.3188 1.67667 20.3759 1.71503 20.4238 1.76336C21.0466 2.38585 21.5407 3.12497 21.8778 3.93848C22.2149 4.75199 22.3884 5.62395 22.3884 6.50453C22.3884 7.38512 22.2149 8.25708 21.8778 9.07059C21.5407 9.8841 21.0466 10.6232 20.4238 11.2457L10.2144 21.4551C10.1662 21.5029 10.1091 21.5407 10.0463 21.5663C9.98345 21.592 9.91618 21.605 9.84832 21.6046ZM14.4889 8.41492L10.2041 12.7049C9.20417 13.705 8.61389 15.0425 8.54903 16.4552C8.48416 17.8679 8.94939 19.2539 9.85348 20.3413L19.6916 10.5135C20.6915 9.51348 21.2818 8.17596 21.3467 6.76326C21.4115 5.35055 20.9463 3.96457 20.0422 2.87711L17.1702 5.74399L16.9279 10.9002C16.9219 11.0127 16.8794 11.1201 16.8067 11.2061C16.7341 11.292 16.6352 11.3519 16.5254 11.3764C16.4155 11.401 16.3006 11.3889 16.1982 11.342C16.0959 11.2951 16.0117 11.216 15.9585 11.1168L14.4889 8.41492Z" fill="#282828"/>
<path d="M14.2263 23.4144C13.3457 23.4154 12.4735 23.2429 11.6595 22.9067C10.8456 22.5705 10.1058 22.0772 9.4826 21.455C9.43427 21.4071 9.39591 21.3501 9.36973 21.2872C9.34356 21.2244 9.33008 21.157 9.33008 21.0889C9.33008 21.0209 9.34356 20.9535 9.36973 20.8906C9.39591 20.8278 9.43427 20.7708 9.4826 20.7229L19.692 10.5135C20.3145 9.89063 21.0536 9.39654 21.8671 9.05944C22.6806 8.72234 23.5526 8.54883 24.4331 8.54883C25.3137 8.54883 26.1857 8.72234 26.9992 9.05944C27.8127 9.39654 28.5518 9.89063 29.1743 10.5135C29.2226 10.5614 29.261 10.6184 29.2872 10.6813C29.3134 10.7441 29.3268 10.8115 29.3268 10.8796C29.3268 10.9476 29.3134 11.015 29.2872 11.0779C29.261 11.1407 29.2226 11.1977 29.1743 11.2457L25.7815 14.6333C25.6914 14.7256 25.57 14.7808 25.4412 14.788L21.9401 14.953L23.621 15.8605C23.691 15.8987 23.7511 15.9525 23.7967 16.0178C23.8424 16.0831 23.8722 16.1581 23.884 16.2369C23.8956 16.3162 23.8886 16.397 23.8636 16.4731C23.8385 16.5492 23.7961 16.6184 23.7396 16.6752L18.9649 21.455C17.7075 22.7104 16.0031 23.4151 14.2263 23.4144ZM10.617 21.0735C11.7044 21.9776 13.0904 22.4428 14.5031 22.3779C15.9158 22.3131 17.2533 21.7228 18.2534 20.7229L22.5434 16.438L19.8363 14.9788C19.7371 14.9256 19.658 14.8414 19.6111 14.739C19.5643 14.6367 19.5522 14.5218 19.5767 14.4119C19.6013 14.302 19.6611 14.2032 19.7471 14.1305C19.8331 14.0579 19.9405 14.0153 20.0529 14.0094L25.2092 13.7671L28.076 10.895C26.9886 9.99095 25.6026 9.52573 24.1899 9.59059C22.7772 9.65545 21.4397 10.2457 20.4396 11.2457L10.617 21.0735Z" fill="#282828"/>
<path d="M9.9411 29.1068C9.14119 29.1077 8.35391 28.9073 7.65172 28.5242L4.39297 26.7504C4.33338 26.7166 4.28105 26.6713 4.23895 26.6172C4.19686 26.5631 4.16583 26.5013 4.14763 26.4352C4.12944 26.3691 4.12444 26.3001 4.13291 26.2321C4.14139 26.1641 4.16318 26.0984 4.19703 26.0389C4.23089 25.9793 4.27615 25.9269 4.33023 25.8848C4.38432 25.8427 4.44616 25.8117 4.51224 25.7935C4.57831 25.7753 4.64732 25.7703 4.71533 25.7788C4.78334 25.7873 4.84901 25.8091 4.9086 25.8429L8.16219 27.6218C8.79455 27.9611 9.51035 28.1137 10.2261 28.0616C10.9419 28.0096 11.6281 27.7551 12.2047 27.3279C12.8619 26.839 13.6329 26.5257 14.4449 26.4174C15.2568 26.3092 16.0829 26.4096 16.8453 26.7092C18.6462 27.4348 20.6278 27.5843 22.5172 27.1371L28.2406 25.781C28.3774 25.7496 28.521 25.7738 28.64 25.8482C28.7589 25.9227 28.8434 26.0413 28.8748 26.1781C28.9063 26.3148 28.8821 26.4585 28.8077 26.5774C28.7332 26.6963 28.6146 26.7808 28.4778 26.8123L22.775 28.1426C20.6843 28.6336 18.493 28.4679 16.4998 27.6682C15.8998 27.4301 15.2488 27.3496 14.6088 27.4344C13.9689 27.5193 13.3613 27.7666 12.8441 28.1529C12.0061 28.7786 10.9868 29.1135 9.9411 29.1068Z" fill="#282828"/>
</svg>
