<svg width="31" height="31" viewBox="0 0 31 31" fill="none" xmlns="http://www.w3.org/2000/svg">
<path d="M18.8983 27.4107H15.7291C15.2152 27.4107 14.7224 27.2066 14.3591 26.8432C13.9957 26.4799 13.7916 25.9871 13.7916 25.4732C13.7916 24.9594 13.9957 24.4666 14.3591 24.1032C14.7224 23.7398 15.2152 23.5357 15.7291 23.5357H18.8983C19.6926 23.5389 20.4797 23.3852 21.2145 23.0834C21.9492 22.7817 22.6171 22.3378 23.1799 21.7773C23.7427 21.2168 24.1893 20.5506 24.494 19.8171C24.7987 19.0836 24.9555 18.2971 24.9555 17.5028C24.9555 16.7085 24.7987 15.922 24.494 15.1885C24.1893 14.4549 23.7427 13.7888 23.1799 13.2283C22.6171 12.6677 21.9492 12.2239 21.2145 11.9221C20.4797 11.6204 19.6926 11.4667 18.8983 11.4698H8.61012L9.23825 12.4026C9.43893 12.6987 9.55516 13.0438 9.57447 13.4009C9.59377 13.758 9.51542 14.1136 9.34783 14.4295C9.18024 14.7454 8.92975 15.0097 8.62326 15.194C8.31677 15.3783 7.96586 15.4756 7.60824 15.4754C7.29227 15.4764 6.98018 15.4059 6.69529 15.2693C6.41041 15.1326 6.16011 14.9333 5.9631 14.6863L2.46931 10.3186C2.2893 10.0958 2.19119 9.81808 2.19141 9.5317C2.19162 9.24532 2.29013 8.96769 2.47047 8.74523L5.9631 4.37743C6.15988 4.13086 6.40975 3.93185 6.6941 3.79524C6.97845 3.65862 7.28996 3.58792 7.60543 3.58838C7.96331 3.58816 8.31449 3.68544 8.62124 3.86977C8.928 4.05411 9.17874 4.31854 9.34653 4.63465C9.51432 4.95076 9.59281 5.30661 9.57358 5.66398C9.55435 6.02134 9.43812 6.36672 9.23738 6.663L8.61012 7.59503H18.8982C20.202 7.59096 21.4937 7.84423 22.6994 8.34032C23.905 8.83641 25.0009 9.56558 25.9243 10.486C26.8476 11.4065 27.5802 12.5001 28.08 13.7042C28.5799 14.9083 28.8372 16.1992 28.8372 17.503C28.8372 18.8067 28.5799 20.0976 28.08 21.3018C27.5802 22.5059 26.8476 23.5995 25.9243 24.5199C25.0009 25.4404 23.905 26.1695 22.6994 26.6656C21.4937 27.1617 20.202 27.415 18.8982 27.4109L18.8983 27.4107ZM15.7291 24.5045C15.4721 24.5045 15.2257 24.6065 15.0441 24.7882C14.8624 24.9699 14.7603 25.2163 14.7603 25.4732C14.7603 25.7301 14.8624 25.9766 15.0441 26.1582C15.2257 26.3399 15.4721 26.442 15.7291 26.442H18.8983C20.0747 26.4458 21.2403 26.2175 22.3283 25.77C23.4162 25.3225 24.4051 24.6646 25.2383 23.8342C26.0716 23.0037 26.7326 22.0169 27.1837 20.9305C27.6348 19.844 27.867 18.6792 27.867 17.5028C27.867 16.3264 27.6348 15.1616 27.1837 14.0751C26.7326 12.9886 26.0716 12.0019 25.2383 11.1714C24.4051 10.3409 23.4162 9.68308 22.3283 9.23558C21.2403 8.78808 20.0747 8.55972 18.8983 8.56359H7.70094C7.61306 8.56364 7.52681 8.53978 7.45145 8.49456C7.37609 8.44934 7.31445 8.38446 7.27314 8.30689C7.23183 8.22931 7.2124 8.14196 7.21694 8.05419C7.22148 7.96642 7.24982 7.88154 7.29891 7.80864L8.43419 6.12098C8.53817 5.97103 8.5986 5.79521 8.60877 5.61302C8.61894 5.43083 8.57847 5.24938 8.49183 5.08878C8.39867 4.94268 8.27222 4.82074 8.12284 4.73293C7.97346 4.64513 7.8054 4.59397 7.63243 4.58364C7.45947 4.57331 7.28652 4.6041 7.12775 4.6735C6.96898 4.7429 6.82891 4.84893 6.71902 4.9829L3.22609 9.3507C3.1844 9.40184 3.16156 9.46575 3.16138 9.53173C3.1612 9.59771 3.18371 9.66175 3.22513 9.71311L6.71979 14.081C6.82952 14.2151 6.96949 14.3213 7.12822 14.3907C7.28694 14.4602 7.45988 14.4911 7.63284 14.4807C7.8058 14.4704 7.97383 14.4191 8.12314 14.3312C8.27245 14.2433 8.39878 14.1212 8.49174 13.975C8.57832 13.8148 8.61885 13.6337 8.60883 13.4519C8.59881 13.27 8.53863 13.0945 8.43497 12.9448L7.29891 11.256C7.24982 11.1831 7.22148 11.0983 7.21694 11.0105C7.2124 10.9227 7.23183 10.8354 7.27314 10.7578C7.31445 10.6802 7.37609 10.6153 7.45145 10.5701C7.52681 10.5249 7.61306 10.501 7.70094 10.5011H18.8983C19.82 10.4977 20.7333 10.6762 21.5858 11.0266C22.4383 11.3769 23.2132 11.8921 23.8661 12.5426C24.5191 13.1931 25.0372 13.9661 25.3907 14.8173C25.7442 15.6685 25.9261 16.5811 25.9261 17.5028C25.9261 18.4245 25.7442 19.3371 25.3907 20.1882C25.0372 21.0394 24.5191 21.8124 23.8661 22.463C23.2132 23.1135 22.4383 23.6287 21.5858 23.979C20.7333 24.3293 19.82 24.5079 18.8983 24.5045H15.7291Z" fill="#282828"/>
</svg>
