<svg width="27" height="27" viewBox="0 0 27 27" fill="none" xmlns="http://www.w3.org/2000/svg">
<path d="M19.517 13.7897C19.5758 13.8484 19.6224 13.9182 19.6542 13.995C19.686 14.0718 19.7024 14.154 19.7024 14.2371C19.7024 14.3203 19.686 14.4025 19.6542 14.4793C19.6224 14.5561 19.5758 14.6259 19.517 14.6846L12.2678 21.9338C12.209 21.9925 12.1393 22.0391 12.0625 22.0709C11.9857 22.1027 11.9034 22.1191 11.8203 22.1191C11.7372 22.1191 11.6549 22.1027 11.5782 22.0709C11.5014 22.0391 11.4316 21.9925 11.3729 21.9338L7.48301 18.044C7.36594 17.925 7.30065 17.7645 7.30135 17.5976C7.30205 17.4307 7.36868 17.2708 7.48674 17.1527C7.6048 17.0347 7.76471 16.9681 7.93165 16.9675C8.09859 16.9668 8.25903 17.0321 8.37802 17.1492L11.8203 20.5915L18.622 13.7898C18.6807 13.731 18.7505 13.6844 18.8273 13.6526C18.9041 13.6208 18.9863 13.6044 19.0695 13.6044C19.1526 13.6044 19.2349 13.6207 19.3117 13.6525C19.3884 13.6843 19.4582 13.7309 19.517 13.7897ZM25.2861 11.7635V23.96C25.2852 24.766 24.9647 25.5387 24.3948 26.1086C23.8249 26.6785 23.0522 26.9991 22.2462 27H4.75379C3.94783 26.9991 3.17514 26.6785 2.60524 26.1086C2.03534 25.5387 1.71477 24.766 1.71387 23.96V11.7635C1.71477 10.9575 2.03535 10.1848 2.60526 9.6149C3.17516 9.04498 3.94787 8.7244 4.75385 8.72348H6.04684V4.99453C6.04833 3.67036 6.57501 2.40086 7.51133 1.46453C8.44765 0.528201 9.71715 0.00150741 11.0413 0L15.9587 0C17.2829 0.00149346 18.5524 0.52818 19.4887 1.46451C20.425 2.40084 20.9517 3.67035 20.9532 4.99453V8.72348H22.2462C23.0522 8.72441 23.8249 9.045 24.3948 9.61492C24.9647 10.1848 25.2852 10.9575 25.2861 11.7635ZM7.31241 8.72348H19.6876V4.99453C19.6865 4.0059 19.2932 3.05809 18.5942 2.35903C17.8951 1.65997 16.9473 1.26674 15.9587 1.26562H11.0413C10.0527 1.26674 9.10488 1.65997 8.40581 2.35903C7.70675 3.05809 7.31353 4.0059 7.31241 4.99453V8.72348ZM24.0205 11.7635C24.02 11.2931 23.8329 10.8421 23.5002 10.5094C23.1676 10.1768 22.7166 9.98963 22.2462 9.9891H4.75379C4.28337 9.98965 3.83237 10.1768 3.49974 10.5094C3.16711 10.8421 2.98001 11.2931 2.97949 11.7635V23.96C2.98002 24.4304 3.16713 24.8814 3.49976 25.2141C3.83238 25.5467 4.28338 25.7338 4.75379 25.7344H22.2462C22.7166 25.7338 23.1676 25.5467 23.5002 25.2141C23.8329 24.8814 24.02 24.4304 24.0205 23.96V11.7635Z" fill="#282828"/>
</svg>
