<svg width="173" height="28" viewBox="0 0 173 28" fill="none" xmlns="http://www.w3.org/2000/svg">
<g clip-path="url(#clip0_1_25)">
<path d="M29.8126 7.42676H27.7636V20.047H29.8126V7.42676Z" fill="#1D1D1B"/>
<path d="M14.7014 6.80347L12.6012 9.08861V27.0581L14.7526 25.3443L14.7014 6.80347Z" fill="#1D1D1B"/>
<path d="M39.8526 7.37483C37.9573 7.42677 34.9351 9.34836 34.8326 11.1661V7.37483H32.7837V19.995H34.8326V11.6854C35.2937 9.19256 38.3671 9.14062 39.2379 9.08869C39.2379 9.08869 40.16 9.03675 40.4673 8.98482C40.7234 8.93288 40.9283 8.88095 40.9796 8.77708L41.9016 7.53064C41.3894 7.4787 40.6722 7.3229 39.8526 7.37483Z" fill="#1D1D1B"/>
<path d="M1.17816 9.08861C1.17816 7.79023 2.86857 7.27088 4.86633 7.27088C7.68367 7.32282 9.88632 9.40022 9.88632 11.5815H10.04V7.79023C8.34959 7.16701 6.86408 6.8554 5.48102 6.80347C0.973265 6.8554 0 8.9328 0 10.2831C0 11.6334 0.307347 12.6202 3.17592 13.9186C3.99551 14.2821 5.02 14.5937 6.09571 14.9573C6.96653 15.2689 9.37408 16.0479 9.37408 17.3463C9.37408 18.8524 7.99102 19.8911 5.48102 19.8911C2.86857 19.8911 0.563469 17.7618 0.512245 14.6457L0.358571 14.5937L0.409796 19.7353C1.63918 19.8911 2.56122 19.995 3.17592 20.0469C3.79061 20.0988 4.55898 20.1508 5.48102 20.1508C9.11796 20.1508 10.6547 18.2811 10.6547 15.8402C10.6547 13.7628 7.78612 12.9318 5.73714 12.2566C3.68816 11.6334 1.17816 11.0621 1.17816 9.08861Z" fill="#1D1D1B"/>
<path d="M114.384 9.14061C114.384 7.84223 116.075 7.32288 118.072 7.32288C120.89 7.37482 123.092 9.45222 123.092 11.6335H123.246V7.84223C121.556 7.21901 120.07 6.9074 118.687 6.85547C114.179 6.85547 113.206 8.88093 113.206 10.2832C113.206 11.6335 113.513 12.6203 116.382 13.9186C117.202 14.2822 118.226 14.5938 119.302 14.9573C120.173 15.2689 122.58 16.048 122.58 17.3463C122.58 18.8525 121.197 19.8912 118.687 19.8912C116.075 19.8912 113.77 17.7618 113.718 14.6457L113.565 14.5938L113.616 19.7354C114.845 19.8912 115.767 19.995 116.382 20.047C116.997 20.0989 117.765 20.1508 118.687 20.1508C122.324 20.1508 123.861 18.2812 123.861 15.8402C123.861 13.7628 120.992 12.9319 118.943 12.2567C116.945 11.6335 114.384 11.0622 114.384 9.14061Z" fill="#1D1D1B"/>
<path d="M45.5898 7.42676H43.5408V20.047H45.5898V7.42676Z" fill="#1D1D1B"/>
<path d="M56.9104 16.7751C55.8859 18.4889 54.0418 20.1509 51.8392 20.1509C49.739 20.1509 48.8169 19.1122 48.7657 16.6712V8.82903H47.1265L50.7635 4.41455L50.8147 7.37485H55.9884L54.7077 8.82903H50.8147L50.7122 16.6712C50.7122 18.437 51.0196 19.5796 53.171 19.5796C54.2467 19.5796 55.4249 18.3851 55.9371 16.6712L57.0641 16.4115L56.9104 16.7751Z" fill="#1D1D1B"/>
<path d="M94.253 3.42775C94.5092 3.16808 94.8165 3.06421 95.2263 3.06421C95.6361 3.06421 95.9434 3.16808 96.1996 3.42775C96.4557 3.68743 96.6094 3.99904 96.6094 4.41452C96.6094 4.77806 96.4557 5.08967 96.1996 5.34935C95.8922 5.60902 95.5849 5.71289 95.2263 5.71289C94.8165 5.71289 94.5092 5.60902 94.253 5.34935C93.9969 5.08967 93.8432 4.77806 93.8432 4.41452C93.8432 4.05097 93.9969 3.73936 94.253 3.42775ZM94.0994 7.47868H96.2508V20.047H94.0994V7.47868Z" fill="#1D1D1B"/>
<path d="M99.1194 19.995V7.47867H101.322V9.45221C102.039 8.62125 102.808 7.99802 103.781 7.47867C104.703 7.01126 105.625 6.80352 106.547 6.80352C108.084 6.75158 109.774 7.47867 110.44 8.46544C110.901 9.19253 111.157 10.0235 111.208 11.0103V20.0989H109.108V11.4257C109.108 10.2832 108.903 7.68641 106.752 7.42674C105.932 7.32287 105.061 7.42674 104.037 7.79028C103.064 8.20576 102.142 8.88092 101.322 9.76382L101.271 19.995H99.1194Z" fill="#1D1D1B"/>
<path d="M126.883 3.42775C127.139 3.16808 127.447 3.06421 127.856 3.06421C128.266 3.06421 128.573 3.16808 128.83 3.42775C129.086 3.68743 129.239 3.99904 129.239 4.41452C129.239 4.77806 129.086 5.08967 128.83 5.34935C128.522 5.60902 128.215 5.71289 127.856 5.71289C127.447 5.71289 127.139 5.60902 126.883 5.34935C126.627 5.08967 126.473 4.77806 126.473 4.41452C126.524 4.05097 126.627 3.73936 126.883 3.42775ZM126.729 7.47868H128.881V20.047H126.729V7.47868Z" fill="#1D1D1B"/>
<path d="M138.255 17.8657C135.591 17.8657 134.259 15.4767 134.259 12.3086C134.259 8.829 135.642 7.11514 138.409 7.11514C140.97 7.11514 142.353 9.8677 142.353 12.6203C142.302 16.048 140.867 17.8657 138.255 17.8657ZM147.219 6.9074C142.916 6.9074 140.048 6.85547 138.613 6.85547C137.589 6.85547 136.821 7.06321 136.821 7.06321C133.901 7.68643 131.852 9.91963 131.852 12.6203C131.852 15.6844 133.645 17.4502 136.411 17.9696C137.384 18.0734 137.948 18.0734 137.948 18.0734C141.892 18.0734 144.76 15.9441 144.76 12.5683C144.76 10.8025 144.043 9.29641 142.711 8.30965H146.246L147.219 6.9074Z" fill="#1D1D1B"/>
<path d="M137.691 25.6559C135.745 25.3443 134.464 24.6692 133.747 23.8382C132.979 22.8514 133.337 21.9166 134.874 20.9298C136.103 21.1376 137.999 21.2934 140.56 21.3972C142.097 21.4492 145.785 21.5531 146.4 22.5398C146.861 23.3708 145.426 27.0062 137.691 25.6559ZM145.631 20.826C144.965 20.4105 144.094 20.0989 143.019 19.995C140.97 19.7873 136.513 19.9431 134.669 19.2679L137.64 17.9176H137.179L132.569 19.995C132.979 20.3585 133.593 20.6182 134.464 20.826C131.852 22.8514 130.93 24.3575 131.647 25.3962C132.364 26.4349 134.413 27.214 138.255 26.9543C139.074 26.9024 140.253 26.7985 141.123 26.6427C141.994 26.4869 142.558 26.3311 143.48 25.9675C144.351 25.6559 145.119 25.2404 145.682 24.6172C146.246 24.0459 146.502 23.5785 146.502 22.5398C146.656 21.9166 146.297 21.2414 145.631 20.826Z" fill="#1D1D1B"/>
<path d="M27.4051 4.36257C27.4051 5.1416 28.0198 5.71288 28.7882 5.71288C29.5565 5.71288 30.1712 5.08966 30.1712 4.36257C30.1712 3.58355 29.5565 2.96033 28.7882 2.96033C28.0198 3.01226 27.4051 3.63548 27.4051 4.36257Z" fill="#1D1D1B"/>
<path d="M43.1822 4.46645C43.1822 5.24548 43.7969 5.81676 44.5653 5.81676C45.3337 5.81676 45.9484 5.19354 45.9484 4.46645C45.9484 3.68743 45.3337 3.06421 44.5653 3.06421C43.7457 3.06421 43.1822 3.68743 43.1822 4.46645Z" fill="#1D1D1B"/>
<path d="M172.166 16.6192C171.141 18.3331 169.297 19.995 167.094 19.995C164.994 19.995 164.072 18.9563 164.021 16.5153V8.67314H162.382L166.019 4.25867L166.07 7.21896H171.243L169.963 8.67314H165.967L165.916 16.5153C165.916 18.2811 166.224 19.4237 168.375 19.4237C169.451 19.4237 170.629 18.2292 171.141 16.5153L172.268 16.2557L172.166 16.6192Z" fill="#1D1D1B"/>
<path d="M151.112 0L148.961 1.9216V19.995H151.112V0Z" fill="#1D1D1B"/>
<path d="M86.0059 2.28514C82.6251 2.2332 80.4737 2.70062 79.0906 7.4267H78.4247L77.349 8.82895H78.9369L78.9882 19.943H80.9859L80.9347 8.88088H83.4959L84.7765 7.4267C84.7765 7.4267 81.7543 7.4267 80.9347 7.4267C80.9859 3.32384 81.6518 3.16803 83.2398 3.1161C84.3155 3.1161 85.6986 3.68738 87.2353 4.36254L88.7208 2.96029C88.7208 2.96029 87.2865 2.38901 86.0059 2.28514Z" fill="#1D1D1B"/>
<path d="M19.7726 6.90735C17.8261 6.90735 15.9308 7.89411 14.7014 9.55603V9.86764C15.5722 8.56927 17.1089 7.79024 18.492 7.79024C21.6679 7.79024 23.2559 10.9063 23.3071 13.8666C23.3071 17.8656 20.8483 19.7872 18.9018 19.7872C16.8528 19.7872 14.9575 18.9563 14.7014 17.9695V19.3718C15.4698 19.8911 16.5455 20.2546 17.8261 20.2546C21.5142 20.2546 25.3561 17.2944 25.3561 13.0357C25.3561 9.14055 22.6924 6.90735 19.7726 6.90735Z" fill="#1D1D1B"/>
<path d="M66.4893 18.6447C64.1842 16.7231 65.0551 13.0357 67.104 10.5947C69.5116 7.68638 72.1753 6.64768 74.4804 8.56927C76.683 10.387 75.8122 14.1263 73.712 16.6192C71.3044 19.5276 68.5896 20.4105 66.4893 18.6447ZM74.8902 8.56927C71.8167 6.02446 67.5138 6.75155 65.1575 9.60797C62.6475 12.6202 63.1598 16.3076 65.9771 18.6447C68.9993 21.1375 73.5071 20.2027 75.6073 17.6579C78.1685 14.5418 77.7075 10.8544 74.8902 8.56927Z" fill="#1D1D1B"/>
<path d="M160.128 8.36156C159.462 7.37479 157.771 6.6477 156.235 6.69964C155.313 6.75157 154.391 6.90738 153.469 7.37479C152.495 7.84221 151.727 8.51736 151.01 9.29639V9.65993C151.829 8.77704 152.751 8.10188 153.725 7.6864C154.698 7.32286 155.62 7.16705 156.44 7.32286C158.591 7.58253 158.796 10.1793 158.796 11.3219V19.9431H160.896V10.9064C160.896 9.91961 160.64 9.08865 160.128 8.36156Z" fill="#1D1D1B"/>
</g>
<defs>
<clipPath id="clip0_1_25">
<rect width="172.37" height="27.0581" fill="white"/>
</clipPath>
</defs>
</svg>
