<svg width="32" height="32" viewBox="0 0 32 32" fill="none" xmlns="http://www.w3.org/2000/svg">
<path d="M28.1169 6.47912L16.0899 0.070512C15.9115 -0.0247149 15.6977 -0.0233785 15.5206 0.0738533L3.82637 6.48246C3.63458 6.58771 3.51562 6.78886 3.51562 7.00771V15.379C3.52264 22.2604 7.59969 28.4859 13.9047 31.2428L15.5279 31.9502C15.6796 32.0163 15.8524 32.0167 16.0044 31.9508L17.8334 31.1609C24.2554 28.4639 28.4333 22.1782 28.434 15.2129V7.00771C28.434 6.78652 28.3121 6.58303 28.1169 6.47912ZM27.2365 15.2129C27.2352 21.6981 23.3442 27.5497 17.3646 30.0593L17.3606 30.0613L15.7678 30.749L14.3839 30.1452C8.51487 27.5791 4.71949 21.7846 4.71281 15.379V7.36222L15.8123 1.27906L27.2365 7.36657V15.2129Z" fill="black"/>
<path d="M11.3962 14.9907C11.1813 14.7391 10.8034 14.7093 10.5518 14.9242C10.3002 15.1387 10.2705 15.5169 10.4853 15.7682L13.6482 19.472C13.8594 19.7193 14.2292 19.753 14.4812 19.5478L21.8474 13.5549C22.104 13.3464 22.1428 12.9692 21.9339 12.7126C21.7255 12.4563 21.3482 12.4172 21.0916 12.626L14.1791 18.2494L11.3962 14.9907Z" fill="black"/>
</svg>
