<svg width="40" height="40" viewBox="0 0 40 40" fill="none" xmlns="http://www.w3.org/2000/svg">
<path fill-rule="evenodd" clip-rule="evenodd" d="M37.7256 9.90635L30.874 11.7423L31.9443 12.8126C32.1553 13.0235 32.1553 13.3673 31.9443 13.586L25.9053 19.6251C25.7022 19.8282 25.3662 19.836 25.1553 19.6407L18.2412 14.2892L6.25685 26.0235L17.7412 18.211C17.9522 18.0704 18.2256 18.0939 18.4131 18.2579L25.6162 24.1251L34.0459 15.6954C34.2568 15.4845 34.6006 15.4845 34.8194 15.6954L35.8897 16.7657L37.7256 9.90635ZM34.0147 9.77354L38.3428 8.60948C38.4365 8.58604 38.5303 8.57823 38.6319 8.60948C38.9209 8.6876 39.0928 8.98448 39.0147 9.27354L36.6944 17.922C36.6709 18.0235 36.624 18.1173 36.5459 18.1954C36.335 18.4064 35.9912 18.4064 35.7725 18.1954L34.4209 16.8439L26.0381 25.2345C25.8428 25.4298 25.5303 25.4454 25.3115 25.2735L18.0147 19.336L1.81154 30.3595C1.6006 30.5079 1.30372 30.4845 1.11622 30.2892C0.905287 30.0782 0.905287 29.7345 1.12404 29.5235L17.8194 13.1798C18.0069 12.9923 18.3115 12.9689 18.5303 13.1407L25.4678 18.5157L30.7803 13.2032L29.4287 11.8517C29.3662 11.7892 29.3115 11.7032 29.2881 11.6095C29.21 11.3204 29.3818 11.0235 29.6709 10.9454L34.0147 9.77354Z" fill="black"/>
</svg>
