<svg width="31" height="31" viewBox="0 0 31 31" fill="none" xmlns="http://www.w3.org/2000/svg">
<g clip-path="url(#clip0_128_1035)">
<path d="M15.5 26.6406C13.2966 26.6406 11.1427 25.9872 9.3106 24.7631C7.47854 23.5389 6.05062 21.799 5.20741 19.7633C4.3642 17.7277 4.14358 15.4876 4.57344 13.3266C5.00331 11.1655 6.06435 9.18044 7.62239 7.62239C9.18044 6.06435 11.1655 5.00331 13.3266 4.57344C15.4876 4.14358 17.7277 4.3642 19.7633 5.20741C21.799 6.05062 23.5389 7.47854 24.7631 9.3106C25.9872 11.1427 26.6406 13.2966 26.6406 15.5C26.6374 18.4537 25.4627 21.2855 23.3741 23.3741C21.2855 25.4627 18.4537 26.6374 15.5 26.6406ZM15.5 5.32813C13.4882 5.32813 11.5216 5.9247 9.84881 7.0424C8.17606 8.1601 6.8723 9.74873 6.10242 11.6074C5.33253 13.4661 5.1311 15.5113 5.52358 17.4844C5.91606 19.4576 6.88484 21.27 8.3074 22.6926C9.72996 24.1152 11.5424 25.0839 13.5156 25.4764C15.4887 25.8689 17.5339 25.6675 19.3926 24.8976C21.2513 24.1277 22.8399 22.824 23.9576 21.1512C25.0753 19.4784 25.6719 17.5118 25.6719 15.5C25.6688 12.8032 24.5961 10.2177 22.6892 8.3108C20.7823 6.40387 18.1968 5.33121 15.5 5.32813Z" fill="black"/>
<path d="M15.5 22.7656C14.063 22.7656 12.6583 22.3395 11.4634 21.5411C10.2686 20.7428 9.33736 19.6081 8.78744 18.2804C8.23752 16.9528 8.09364 15.4919 8.37399 14.0825C8.65433 12.6732 9.34631 11.3785 10.3624 10.3624C11.3785 9.34631 12.6732 8.65433 14.0825 8.37399C15.4919 8.09364 16.9528 8.23752 18.2804 8.78744C19.6081 9.33736 20.7428 10.2686 21.5411 11.4634C22.3395 12.6583 22.7656 14.063 22.7656 15.5C22.7634 17.4263 21.9973 19.2731 20.6352 20.6352C19.2731 21.9973 17.4263 22.7634 15.5 22.7656ZM15.5 9.20313C14.2546 9.20313 13.0372 9.57243 12.0016 10.2643C10.9661 10.9563 10.159 11.9397 9.68245 13.0903C9.20585 14.2409 9.08115 15.507 9.32412 16.7285C9.56709 17.9499 10.1668 19.0719 11.0474 19.9526C11.9281 20.8332 13.0501 21.4329 14.2715 21.6759C15.493 21.9189 16.7591 21.7942 17.9097 21.3176C19.0603 20.841 20.0438 20.0339 20.7357 18.9984C21.4276 17.9628 21.7969 16.7454 21.7969 15.5C21.795 13.8306 21.1309 12.23 19.9504 11.0496C18.77 9.86909 17.1694 9.20505 15.5 9.20313Z" fill="black"/>
<path d="M29.5469 15.9844H18.8906C18.7622 15.9844 18.639 15.9333 18.5481 15.8425C18.4573 15.7517 18.4062 15.6285 18.4062 15.5C18.4062 15.3715 18.4573 15.2483 18.5481 15.1575C18.639 15.0667 18.7622 15.0156 18.8906 15.0156H29.5469C29.6753 15.0156 29.7985 15.0667 29.8894 15.1575C29.9802 15.2483 30.0312 15.3715 30.0312 15.5C30.0312 15.6285 29.9802 15.7517 29.8894 15.8425C29.7985 15.9333 29.6753 15.9844 29.5469 15.9844Z" fill="black"/>
<path d="M15.5 12.5938C15.3715 12.5938 15.2483 12.5427 15.1575 12.4519C15.0667 12.361 15.0156 12.2378 15.0156 12.1094V1.45312C15.0156 1.32466 15.0667 1.20146 15.1575 1.11062C15.2483 1.01978 15.3715 0.96875 15.5 0.96875C15.6285 0.96875 15.7517 1.01978 15.8425 1.11062C15.9333 1.20146 15.9844 1.32466 15.9844 1.45312V12.1094C15.9844 12.2378 15.9333 12.361 15.8425 12.4519C15.7517 12.5427 15.6285 12.5938 15.5 12.5938Z" fill="black"/>
<path d="M12.1094 15.9844H1.45312C1.32466 15.9844 1.20146 15.9333 1.11062 15.8425C1.01978 15.7517 0.96875 15.6285 0.96875 15.5C0.96875 15.3715 1.01978 15.2483 1.11062 15.1575C1.20146 15.0667 1.32466 15.0156 1.45312 15.0156H12.1094C12.2378 15.0156 12.361 15.0667 12.4519 15.1575C12.5427 15.2483 12.5938 15.3715 12.5938 15.5C12.5938 15.6285 12.5427 15.7517 12.4519 15.8425C12.361 15.9333 12.2378 15.9844 12.1094 15.9844Z" fill="black"/>
<path d="M15.5 30.0312C15.3715 30.0312 15.2483 29.9802 15.1575 29.8894C15.0667 29.7985 15.0156 29.6753 15.0156 29.5469V18.8906C15.0156 18.7622 15.0667 18.639 15.1575 18.5481C15.2483 18.4573 15.3715 18.4062 15.5 18.4062C15.6285 18.4062 15.7517 18.4573 15.8425 18.5481C15.9333 18.639 15.9844 18.7622 15.9844 18.8906V29.5469C15.9844 29.6753 15.9333 29.7985 15.8425 29.8894C15.7517 29.9802 15.6285 30.0312 15.5 30.0312Z" fill="black"/>
<path d="M15.5 16.9531C15.2126 16.9531 14.9317 16.8679 14.6927 16.7082C14.4537 16.5486 14.2675 16.3216 14.1575 16.0561C14.0475 15.7906 14.0187 15.4984 14.0748 15.2165C14.1309 14.9346 14.2693 14.6757 14.4725 14.4725C14.6757 14.2693 14.9346 14.1309 15.2165 14.0748C15.4984 14.0187 15.7906 14.0475 16.0561 14.1575C16.3216 14.2675 16.5486 14.4537 16.7082 14.6927C16.8679 14.9317 16.9531 15.2126 16.9531 15.5C16.9531 15.8854 16.8 16.255 16.5275 16.5275C16.255 16.8 15.8854 16.9531 15.5 16.9531ZM15.5 15.0156C15.4042 15.0156 15.3106 15.044 15.2309 15.0973C15.1512 15.1505 15.0892 15.2261 15.0525 15.3146C15.0158 15.4031 15.0062 15.5005 15.0249 15.5945C15.0436 15.6885 15.0898 15.7748 15.1575 15.8425C15.2252 15.9102 15.3115 15.9564 15.4055 15.9751C15.4995 15.9938 15.5969 15.9842 15.6854 15.9475C15.7739 15.9108 15.8495 15.8488 15.9027 15.7691C15.956 15.6894 15.9844 15.5958 15.9844 15.5C15.9844 15.3715 15.9333 15.2483 15.8425 15.1575C15.7517 15.0667 15.6285 15.0156 15.5 15.0156Z" fill="black"/>
</g>
<defs>
<clipPath id="clip0_128_1035">
<rect width="31" height="31" fill="white"/>
</clipPath>
</defs>
</svg>
