<svg width="31" height="31" viewBox="0 0 31 31" fill="none" xmlns="http://www.w3.org/2000/svg">
<g clip-path="url(#clip0_128_945)">
<path d="M27.7908 3.72122H7.8927C7.77907 3.67561 7.65265 3.67561 7.53902 3.72122H3.20925C1.43765 3.72309 0.00186709 5.15887 0 6.93047V24.1034C0.00186709 25.875 1.43765 27.3108 3.20925 27.3126H27.7908C29.5623 27.3108 30.9981 25.875 31 24.1034V6.93047C30.9981 5.15887 29.5623 3.72309 27.7908 3.72122ZM30.0441 6.93047V19.0505H11.5533C12.2878 18.612 12.7388 17.8206 12.7415 16.9653C12.7415 15.6191 11.6317 14.5239 10.2676 14.5239C9.43358 14.5231 8.655 14.9403 8.19383 15.6351V4.67717H27.7908C29.0345 4.6785 30.0427 5.68673 30.0441 6.93047ZM3.64615 16.9653C3.65628 16.1363 4.33537 15.4718 5.16409 15.4799C5.43428 15.4799 5.69968 15.5505 5.93413 15.6852C6.30861 15.8991 6.57187 16.2651 6.65536 16.6884L7.07198 18.8355L4.87842 18.424C4.17053 18.2973 3.65282 17.6846 3.64615 16.9653ZM8.36 18.8355L8.77636 16.6884C8.93533 15.9325 9.63522 15.4156 10.4045 15.4865C11.1734 15.5572 11.7674 16.1931 11.7856 16.9653C11.7789 17.6843 11.2615 18.297 10.5536 18.424L8.36 18.8355ZM3.20925 4.67717H7.23789V15.6354C7.02691 15.315 6.74391 15.0486 6.41157 14.857C6.03228 14.6386 5.60205 14.5236 5.16436 14.5239C3.80005 14.5239 2.69047 15.6191 2.69047 16.9653C2.69314 17.8206 3.14417 18.6123 3.87873 19.0505H0.955947V6.93047C0.957281 5.68673 1.96551 4.6785 3.20925 4.67717ZM0.955947 24.1034V20.0065H6.562L4.30523 22.2632C4.11852 22.4499 4.11852 22.7524 4.30523 22.9391C4.49194 23.1258 4.79441 23.1258 4.98111 22.9391L7.23789 20.6823V26.3567H3.20925C1.96551 26.3554 0.957281 25.3471 0.955947 24.1034ZM27.7908 26.3567H8.19383V20.6823L11.2358 23.7244C11.4226 23.9111 11.725 23.9111 11.9117 23.7244C12.0984 23.5377 12.0984 23.2352 11.9117 23.0485L8.86972 20.0065H30.0441V24.1034C30.0427 25.3471 29.0345 26.3554 27.7908 26.3567Z" fill="black"/>
</g>
<defs>
<clipPath id="clip0_128_945">
<rect width="31" height="31" fill="white"/>
</clipPath>
</defs>
</svg>
