<svg width="31" height="31" viewBox="0 0 31 31" fill="none" xmlns="http://www.w3.org/2000/svg">
<g clip-path="url(#clip0_128_1043)">
<path fill-rule="evenodd" clip-rule="evenodd" d="M3.67032 21.093H3.54475C2.61239 21.093 1.71822 20.7226 1.05894 20.0633C0.399665 19.404 0.0292969 18.5099 0.0292969 17.5775V14.846C0.0292969 13.9136 0.399665 13.0195 1.05894 12.3602C1.71822 11.7009 2.61239 11.3306 3.54475 11.3306H4.77296V11.3003C4.77296 5.37644 9.57524 0.574219 15.4991 0.574219C21.423 0.574219 26.2252 5.37644 26.2252 11.3003V11.3306H27.4534C28.3858 11.3306 29.2799 11.7009 29.9392 12.3602C30.5985 13.0195 30.9689 13.9136 30.9689 14.846V17.5775C30.9689 18.5099 30.5985 19.404 29.9392 20.0633C29.2799 20.7226 28.3858 21.093 27.4534 21.093H25.7504C25.5879 21.093 25.432 21.0284 25.317 20.9134C25.2021 20.7985 25.1375 20.6426 25.1375 20.48V11.3003C25.1375 5.97722 20.8223 1.66194 15.4991 1.66194C10.176 1.66194 5.86068 5.97722 5.86068 11.3003V20.48C5.86068 20.6426 5.79614 20.7985 5.68121 20.9134C5.56621 21.0284 5.41037 21.093 5.24781 21.093H4.7581C4.78595 24.5337 7.58351 27.314 11.0304 27.314H12.0827C12.1863 26.8359 12.4253 26.3932 12.7766 26.0418C13.2583 25.5602 13.9115 25.2896 14.5926 25.2896H16.4055C17.8239 25.2896 18.9737 26.4395 18.9737 27.8578C18.9737 29.2762 17.8239 30.4261 16.4055 30.4261H14.5926C13.3609 30.4261 12.3317 29.559 12.0821 28.4017H11.0304C6.98248 28.4017 3.69781 25.134 3.67032 21.093ZM17.886 27.8578C17.886 27.0402 17.2232 26.3773 16.4055 26.3773H14.5926C14.2 26.3773 13.8235 26.5333 13.5458 26.811C13.2681 27.0886 13.1121 27.4652 13.1121 27.8578C13.1121 28.6755 13.775 29.3384 14.5926 29.3384H16.4055C17.2232 29.3384 17.886 28.6755 17.886 27.8578ZM4.77296 12.4183H3.54475C2.90088 12.4183 2.28335 12.6741 1.82808 13.1293C1.37281 13.5846 1.11702 14.2021 1.11702 14.846V17.5775C1.11702 18.2214 1.37281 18.8389 1.82808 19.2942C2.28335 19.7494 2.90088 20.0052 3.54475 20.0052H4.77296V12.4183ZM26.2252 12.4183V20.0052H27.4534C28.0973 20.0052 28.7148 19.7494 29.1701 19.2942C29.6254 18.8389 29.8811 18.2214 29.8811 17.5775V14.846C29.8811 14.2021 29.6254 13.5846 29.1701 13.1293C28.7148 12.6741 28.0973 12.4183 27.4534 12.4183H26.2252Z" fill="black"/>
</g>
<defs>
<clipPath id="clip0_128_1043">
<rect width="31" height="31" fill="white"/>
</clipPath>
</defs>
</svg>
