<svg width="32" height="32" viewBox="0 0 32 32" fill="none" xmlns="http://www.w3.org/2000/svg">
<path d="M24.1783 11.7629C24.102 11.6426 23.9862 11.5525 23.8508 11.5082C23.7153 11.4638 23.5687 11.4679 23.4359 11.5197C23.3061 11.572 23.197 11.6654 23.1254 11.7857C23.0537 11.9059 23.0234 12.0463 23.0391 12.1853C23.0997 12.6522 23.1296 13.1226 23.1287 13.5933C23.1487 14.2491 23.0534 14.9033 22.8471 15.5261C22.2176 12.5879 21.4271 9.68643 20.4791 6.83494C20.4454 6.69074 20.3574 6.56508 20.2335 6.48404C20.1096 6.403 19.9592 6.37281 19.8135 6.39974C19.6745 6.40609 19.5412 6.45672 19.4329 6.54422C19.3247 6.63172 19.2473 6.75152 19.2119 6.88614C18.9047 8.16614 17.7783 11.4045 16.1143 12.6205C15.6153 11.8172 15.3866 10.8753 15.4615 9.93254C15.5783 7.70315 15.9739 5.49716 16.6391 3.36614C16.67 3.24005 16.6617 3.10757 16.6155 2.98628C16.5692 2.86499 16.4872 2.76063 16.3803 2.68703C16.2734 2.61344 16.1466 2.57409 16.0168 2.57422C15.887 2.57435 15.7603 2.61394 15.6535 2.68774C8.54954 7.82054 5.11914 13.0173 5.11914 18.5597C5.11914 21.4453 6.26542 24.2127 8.30582 26.2531C10.3462 28.2935 13.1136 29.4397 15.9991 29.4397C18.8847 29.4397 21.6521 28.2935 23.6925 26.2531C25.7329 24.2127 26.8791 21.4453 26.8791 18.5597C26.7085 16.0682 25.7643 13.6921 24.1783 11.7629ZM15.9991 28.1597C13.4531 28.1597 11.0113 27.1483 9.21092 25.348C7.41057 23.5476 6.39914 21.1058 6.39914 18.5597C6.39914 13.8365 9.18954 9.33094 14.9239 4.81254C14.4807 6.48503 14.2316 8.20302 14.1815 9.93254C14.1093 10.6596 14.1967 11.3938 14.4377 12.0836C14.6787 12.7734 15.0674 13.4022 15.5767 13.9261C15.6722 14.0089 15.7899 14.0615 15.9152 14.0775C16.0405 14.0934 16.1676 14.0719 16.2807 14.0157C18.0087 13.1453 19.1863 10.8285 19.8391 9.12614C20.7468 11.7739 21.39 14.5051 21.7591 17.2797C21.7591 17.3986 21.7922 17.5151 21.8547 17.6162C21.9172 17.7173 22.0066 17.799 22.1129 17.8522C22.2192 17.9053 22.3382 17.9278 22.4566 17.9172C22.575 17.9065 22.6881 17.8631 22.7831 17.7917C23.2827 17.3759 23.685 16.8554 23.9614 16.2671C24.2379 15.6788 24.3818 15.037 24.3831 14.3869C25.0824 15.6748 25.4971 17.0978 25.5991 18.5597C25.5991 21.1058 24.5877 23.5476 22.7874 25.348C20.987 27.1483 18.5452 28.1597 15.9991 28.1597Z" fill="black"/>
</svg>
