<svg width="29" height="29" viewBox="0 0 29 29" fill="none" xmlns="http://www.w3.org/2000/svg">
<g clip-path="url(#clip0_128_1059)">
<path d="M24.3774 6.66714C24.4543 6.66714 24.5322 6.64756 24.6036 6.60635L27.4234 4.97843C27.6401 4.85326 27.7143 4.57614 27.5892 4.35942C27.4641 4.14271 27.187 4.06848 26.9702 4.1936L24.1505 5.82152C23.9337 5.94669 23.8595 6.22381 23.9846 6.44053C24.0685 6.58589 24.2208 6.66714 24.3774 6.66714Z" fill="black"/>
<path d="M21.8243 4.09259C21.8635 4.1031 21.903 4.10813 21.9418 4.10813C22.1419 4.10813 22.325 3.9746 22.3792 3.77216L23.2219 0.62711C23.2867 0.385392 23.1432 0.136925 22.9015 0.0721535C22.6599 0.00749245 22.4113 0.150864 22.3465 0.392582L21.5038 3.53763C21.4391 3.77935 21.5825 4.02781 21.8243 4.09259Z" fill="black"/>
<path d="M28.6375 10.0072L25.4924 9.16444C25.2507 9.09978 25.0022 9.24315 24.9374 9.48487C24.8727 9.72659 25.0161 9.97505 25.2578 10.0398L28.4029 10.8826C28.4422 10.8931 28.4816 10.8981 28.5204 10.8981C28.7205 10.8981 28.9036 10.7646 28.9579 10.5621C29.0226 10.3204 28.8792 10.072 28.6375 10.0072Z" fill="black"/>
<path d="M28.0943 19.9758C27.9344 19.7739 27.8522 19.5211 27.863 19.2637L27.8913 18.5886C27.9301 17.6646 27.335 16.846 26.4441 16.5978L25.7941 16.4168C25.5452 16.3475 25.3296 16.1908 25.1869 15.9755L24.8153 15.4147C24.5023 14.9425 24.0203 14.6425 23.4947 14.5544L22.5587 12.9331C22.8282 12.4869 23.0371 12.0004 23.1758 11.4828C23.5632 10.0371 23.3644 8.52699 22.616 7.23079C21.8676 5.93452 20.6592 5.00731 19.2135 4.61995C18.6957 4.48121 18.1697 4.41804 17.6483 4.42804L15.723 1.09341C15.2063 0.198553 14.058 -0.10932 13.1632 0.407526L12.3429 0.881117C11.7143 1.24405 11.3759 1.91876 11.4091 2.59834C11.3749 2.6652 11.357 2.74102 11.3598 2.82006C11.4229 4.62897 11.0867 6.1269 10.3321 7.39944C9.67909 8.50044 8.70611 9.43407 7.35763 10.2534L2.54279 13.0332C1.71133 13.5133 1.38726 14.5386 1.75987 15.3993L1.73099 15.416C0.129395 16.3406 -0.421303 18.3959 0.503367 19.9975C1.1239 21.0723 2.25356 21.6738 3.41364 21.6738C3.9822 21.6738 4.55812 21.5293 5.08492 21.2251L5.1142 21.2082C5.47535 21.6946 6.0408 21.9642 6.6205 21.9642C6.93819 21.9641 7.25997 21.8834 7.55432 21.7134L7.57204 21.7032L10.2463 26.3351C10.4965 26.7686 10.9006 27.0787 11.3841 27.2082C11.5456 27.2515 11.7094 27.2729 11.8722 27.2729C12.1969 27.2729 12.5174 27.1877 12.8061 27.021L13.2163 26.7842C13.6497 26.534 13.9598 26.1298 14.0894 25.6463C14.2189 25.1629 14.1524 24.6579 13.9022 24.2244L11.2279 19.5925L12.3691 18.9336C13.2384 18.4577 14.152 18.1563 15.0963 18.0304C15.0527 18.2091 15.033 18.3965 15.041 18.5885L15.0694 19.2637C15.0802 19.5211 14.998 19.774 14.838 19.9759L14.4179 20.5059C13.844 21.2301 13.844 22.2417 14.4179 22.9659L14.838 23.496C14.998 23.6978 15.0802 23.9508 15.0694 24.2081L15.041 24.8832C15.0023 25.8073 15.5974 26.6258 16.4882 26.8739L17.1384 27.0551C17.3871 27.1243 17.6028 27.281 17.7454 27.4963L18.1171 28.0571C18.6289 28.8293 19.5925 29.1422 20.4604 28.8183L21.0905 28.583C21.3328 28.4925 21.5996 28.4925 21.8419 28.583L22.472 28.8182C22.7012 28.9038 22.937 28.945 23.1695 28.945C23.8173 28.945 24.4387 28.6254 24.8153 28.0571L25.1869 27.4963C25.3296 27.281 25.5452 27.1243 25.7941 27.0551L26.4441 26.874C27.335 26.6258 27.9301 25.8073 27.8913 24.8833L27.863 24.2081C27.8522 23.9508 27.9344 23.6978 28.0943 23.496L28.5145 22.9659H28.5145C29.0884 22.2417 29.0884 21.2301 28.5145 20.5059L28.0943 19.9758ZM13.214 25.4118C13.1471 25.6615 12.987 25.8701 12.7631 25.9994L12.353 26.2362C12.1291 26.3654 11.8684 26.3998 11.6187 26.3328C11.369 26.266 11.1603 26.1058 11.0311 25.882L8.35689 21.2501L10.4431 20.0456L13.1173 24.6775C13.2466 24.9014 13.2809 25.1621 13.214 25.4118ZM18.9789 5.49528C20.1909 5.82002 21.2038 6.59728 21.8311 7.68391C22.4585 8.77048 22.6251 10.0363 22.3004 11.2483C22.2297 11.5119 22.137 11.7657 22.0248 12.0084L18.1828 5.35389C18.4491 5.37807 18.7153 5.42465 18.9789 5.49528ZM12.796 1.6659L13.6163 1.19236C13.7683 1.10458 13.9344 1.06288 14.0985 1.06288C14.4332 1.06288 14.7592 1.23645 14.9382 1.54653L22.4999 14.6438C22.4906 14.6471 22.4812 14.6501 22.4719 14.6535L21.8418 14.8888C21.5996 14.9794 21.3328 14.9793 21.0905 14.8888L20.4604 14.6536C20.0277 14.492 19.5712 14.4888 19.1588 14.6219L15.9586 9.07899L12.4418 2.98777C12.1751 2.52569 12.3339 1.93272 12.796 1.6659ZM11.1115 7.86169C11.7166 6.84155 12.0819 5.70193 12.2156 4.40843L18.3835 15.0916C18.2854 15.1881 18.1958 15.2959 18.1171 15.4147L17.7454 15.9755C17.6028 16.1908 17.3871 16.3475 17.1383 16.4168L16.4883 16.5978C16.165 16.6879 15.8809 16.8534 15.6516 17.0715C14.4951 17.1315 13.3844 17.4207 12.3236 17.9384L8.19851 10.7934C9.48738 9.95002 10.4435 8.98814 11.1115 7.86169ZM1.2882 19.5444C0.613384 18.3755 1.01529 16.8756 2.18411 16.2008L2.20184 16.1906L4.64952 20.43L4.6318 20.4403C3.46298 21.1152 1.96305 20.7132 1.2882 19.5444ZM5.77932 20.5744L2.64172 15.14C2.37494 14.6779 2.53383 14.0849 2.99591 13.8181L7.42275 11.2622L11.528 18.3728L7.1012 20.9286C6.63911 21.1954 6.04613 21.0365 5.77932 20.5744ZM27.8042 22.403H27.8042L27.3841 22.9331C27.0891 23.3053 26.9376 23.7716 26.9575 24.2461L26.9858 24.9213C27.0069 25.4224 26.6841 25.8664 26.2009 26.001L25.5509 26.182C25.0922 26.3097 24.6946 26.5987 24.4315 26.9957L24.0599 27.5564C23.7823 27.9753 23.2596 28.1449 22.7889 27.9692L22.1588 27.734C21.9355 27.6506 21.7008 27.6089 21.4662 27.6089C21.2315 27.6089 20.9969 27.6506 20.7735 27.734L20.1434 27.9692C19.6727 28.1452 19.1501 27.9752 18.8725 27.5564L18.5008 26.9957C18.2377 26.5987 17.8402 26.3097 17.3815 26.1821L16.7314 26.0009C16.2482 25.8664 15.9255 25.4224 15.9465 24.9212L15.9748 24.2461C15.9947 23.7716 15.8432 23.3053 15.5483 22.9331L15.1282 22.403C14.8169 22.0102 14.8169 21.4616 15.1281 21.0689L15.5483 20.5387C15.8432 20.1666 15.9947 19.7002 15.9748 19.2258L15.9465 18.5505C15.9255 18.0494 16.2482 17.6054 16.7314 17.4709L17.3815 17.2899C17.8403 17.162 18.2378 16.8731 18.5008 16.4762L18.8725 15.9154C19.15 15.4966 19.6726 15.3268 20.1434 15.5026L20.7735 15.7378C21.2201 15.9045 21.7122 15.9045 22.1588 15.7378L22.7889 15.5025C23.2597 15.3269 23.7823 15.4966 24.0599 15.9154L24.4315 16.4762C24.6946 16.8731 25.0921 17.162 25.5509 17.2899L26.201 17.4709C26.6841 17.6054 27.0069 18.0494 26.9858 18.5506L26.9575 19.2258C26.9376 19.7002 27.0891 20.1665 27.3841 20.5387L27.8042 21.0688C28.1155 21.4616 28.1155 22.0102 27.8042 22.403Z" fill="black"/>
<path d="M20.1907 20.4597C20.1907 20.4597 20.1907 20.4597 20.1907 20.4597C20.4829 20.1675 20.6438 19.7791 20.6438 19.3659C20.6438 18.9527 20.4829 18.5643 20.1907 18.2721C19.5876 17.6691 18.6063 17.6691 18.0031 18.2721C17.4 18.8752 17.4 19.8566 18.0031 20.4597C18.2953 20.7519 18.6837 20.9128 19.0969 20.9128C19.5101 20.9128 19.8986 20.7519 20.1907 20.4597ZM18.6439 18.9129C18.7688 18.7881 18.9329 18.7256 19.0969 18.7256C19.261 18.7256 19.425 18.7881 19.5499 18.9129C19.6709 19.0339 19.7376 19.1948 19.7376 19.3659C19.7376 19.537 19.6709 19.6979 19.5499 19.8189L19.5499 19.8189C19.4289 19.9399 19.268 20.0065 19.0969 20.0065C18.9258 20.0065 18.765 19.9399 18.6439 19.8189C18.3942 19.5691 18.3942 19.1627 18.6439 18.9129Z" fill="black"/>
<path d="M22.7422 23.0119C22.45 23.3041 22.2891 23.6925 22.2891 24.1057C22.2891 24.5189 22.45 24.9074 22.7422 25.1996C23.0437 25.5011 23.4398 25.6518 23.8359 25.6518C24.2321 25.6518 24.6282 25.5011 24.9297 25.1996C25.5329 24.5964 25.5329 23.6151 24.9297 23.0119C24.3266 22.4088 23.3452 22.4088 22.7422 23.0119ZM24.2889 24.5587C24.0392 24.8085 23.6328 24.8085 23.383 24.5587C23.262 24.4377 23.1953 24.2768 23.1953 24.1057C23.1953 23.9347 23.262 23.7737 23.383 23.6528C23.5079 23.5279 23.6719 23.4654 23.8359 23.4654C24 23.4654 24.164 23.5279 24.2889 23.6528C24.5387 23.9025 24.5387 24.309 24.2889 24.5587Z" fill="black"/>
<path d="M24.0563 19.1454C23.8794 18.9685 23.5925 18.9685 23.4155 19.1454L18.8749 23.686C18.6979 23.863 18.6979 24.1498 18.8749 24.3268C18.9634 24.4153 19.0794 24.4595 19.1953 24.4595C19.3113 24.4595 19.4272 24.4153 19.5157 24.3268L24.0563 19.7862C24.2333 19.6092 24.2333 19.3224 24.0563 19.1454Z" fill="black"/>
</g>
<defs>
<clipPath id="clip0_128_1059">
<rect width="29" height="29" fill="white"/>
</clipPath>
</defs>
</svg>
