<?xml version="1.0" encoding="utf-8"?>
<!-- Generator: Adobe Illustrator 24.3.0, SVG Export Plug-In . SVG Version: 6.00 Build 0)  -->
<svg width="22" height="22" version="1.1" xmlns="http://www.w3.org/2000/svg" xmlns:xlink="http://www.w3.org/1999/xlink" x="0px" y="0px"
	 viewBox="0 0 62 62.1" style="enable-background:new 0 0 62 62.1;" xml:space="preserve">
<g>
	<g>
		<path d="M59.6,62.1c-0.5-0.3-1-0.6-1.4-1c-5.1-5-10.2-10-15.2-15l-0.4-0.4c-0.2,0.1-0.3,0.2-0.5,0.3c-3.3,2.6-7.2,4.3-11.3,5
			c-6,1.1-12.3,0.1-17.6-3c-5.6-3.1-9.8-8.3-11.8-14.4c-0.6-1.9-1-3.8-1.2-5.7c0-0.2-0.1-0.3-0.1-0.5V24c0.2-1,0.3-2.1,0.5-3.1
			c0.7-3.7,2.2-7.2,4.4-10.1c3.6-5,8.8-8.5,14.7-9.9c8.1-2.2,16.7-0.3,23.1,5.1c5.4,4.2,8.7,10.4,9.3,17.2
			c0.7,5.9-0.9,11.9-4.3,16.8c-0.7,1-1.5,2-2.4,3.1c0.2,0.1,0.4,0.2,0.5,0.3l15.3,15c0.9,0.9,1.1,1.8,0.5,2.6
			c-0.4,0.4-0.8,0.7-1.2,1L59.6,62.1z"/>
	</g>
</g>
</svg>
