<svg width="21" height="21" viewBox="0 0 21 21" fill="none" xmlns="http://www.w3.org/2000/svg">
<path d="M20.8606 20.2215L15.0277 14.3882L14.8007 14.1627L15.0061 13.9161C16.28 12.3942 16.9772 10.4722 16.9753 8.48756C16.9753 3.80735 13.1679 0 8.48766 0C3.80739 0 0 3.80735 0 8.48756C0 13.1678 3.80739 16.9751 8.48766 16.9751C10.4719 16.9767 12.3932 16.2795 13.9147 15.0059L14.1628 14.8005L14.3898 15.0275L20.2217 20.8608C20.2634 20.9043 20.3133 20.9389 20.3685 20.9628C20.4237 20.9867 20.4832 20.9994 20.5433 21C20.6035 21.0006 20.6632 20.9892 20.7189 20.9664C20.7746 20.9437 20.8252 20.9101 20.8677 20.8675C20.9103 20.8249 20.9439 20.7743 20.9666 20.7186C20.9893 20.6628 21.0006 20.6031 21 20.543C20.9993 20.4828 20.9866 20.4234 20.9627 20.3682C20.9388 20.313 20.904 20.2631 20.8606 20.2215ZM8.48766 16.0711C4.30611 16.0711 0.904011 12.6691 0.904011 8.48756C0.904011 4.30606 4.30611 0.904001 8.48766 0.904001C12.6692 0.904001 16.0713 4.30606 16.0713 8.48756C16.0713 12.6691 12.6692 16.0711 8.48766 16.0711Z" fill="#1D1D1B"/>
</svg>
