<svg width="156" height="22" viewBox="0 0 156 22" fill="none" xmlns="http://www.w3.org/2000/svg">
<path d="M10.9366 20.4226C16.2911 20.4226 20.6318 16.0688 20.6318 10.6981C20.6318 5.32751 16.2911 0.97374 10.9366 0.97374C5.58198 0.97374 1.24121 5.32751 1.24121 10.6981C1.24121 16.0688 5.58198 20.4226 10.9366 20.4226Z" stroke="white" stroke-miterlimit="10"/>
<path d="M15.8793 7.93536C15.8793 7.93536 15.8191 6.57892 13.88 6.89808L12.7749 5.45187H8.65556L7.55042 6.89808C5.6214 6.57892 5.55109 7.93536 5.55109 7.93536C5.55109 7.93536 5.29991 12.1543 5.55109 13.5705C5.80226 14.9868 7.00785 14.7973 7.00785 14.7973H14.4225C14.4225 14.7973 15.6282 14.9868 15.8793 13.5705C16.1305 12.1543 15.8793 7.93536 15.8793 7.93536ZM10.7152 13.5007C9.20813 13.5007 7.99249 12.264 7.99249 10.748C7.99249 9.23195 9.20813 7.9952 10.7152 7.9952C12.2222 7.9952 13.4379 9.23195 13.4379 10.748C13.4379 12.264 12.2222 13.5007 10.7152 13.5007Z" fill="white"/>
<path d="M12.8045 10.6982C12.8045 11.8452 11.8701 12.7728 10.7147 12.7728C9.55932 12.7728 8.625 11.8452 8.625 10.6982C8.625 9.55125 9.55932 8.6237 10.7147 8.6237C11.8701 8.6237 12.8045 9.55125 12.8045 10.6982Z" fill="white"/>
<path d="M125.1 20.6622H34.9086C29.3526 20.6622 24.8516 16.194 24.8516 10.6785C24.8516 5.16301 29.3526 0.694763 34.9086 0.694763H125.1C130.656 0.694763 135.157 5.16301 135.157 10.6785C135.157 16.194 130.656 20.6622 125.1 20.6622Z" stroke="white" stroke-miterlimit="10"/>
<path d="M125.221 9.01281C125.593 9.01281 125.894 8.71364 125.894 8.34459C125.894 7.97553 125.593 7.67633 125.221 7.67633C124.849 7.67633 124.548 7.97553 124.548 8.34459C124.548 8.71364 124.849 9.01281 125.221 9.01281Z" fill="white"/>
<path d="M125.221 11.4465C125.593 11.4465 125.894 11.1473 125.894 10.7782C125.894 10.4092 125.593 10.11 125.221 10.11C124.849 10.11 124.548 10.4092 124.548 10.7782C124.548 11.1473 124.849 11.4465 125.221 11.4465Z" fill="white"/>
<path d="M125.221 14.1196C125.593 14.1196 125.894 13.8204 125.894 13.4514C125.894 13.0823 125.593 12.7831 125.221 12.7831C124.849 12.7831 124.548 13.0823 124.548 13.4514C124.548 13.8204 124.849 14.1196 125.221 14.1196Z" fill="white"/>
<path d="M144.821 6.51921L148.619 10.0998L155.15 6.51921H144.821Z" stroke="white" stroke-linecap="round" stroke-linejoin="round"/>
<path d="M149.795 15.5355L148.619 10.0998L155.15 6.51921L149.795 15.5355Z" stroke="white" stroke-linecap="round" stroke-linejoin="round"/>
</svg>
