<svg xmlns="http://www.w3.org/2000/svg" width="19" height="19" viewBox="0 0 62.28 62.27">
<g data-name="Layer 2">
<g data-name="Layer 1">
<path d="M29.19,0h3.89c1.06.14,2.13.24,3.19.42A30.57,30.57,0,0,1,55.89,12.31,30.18,30.18,0,0,1,61.7,37,29.9,29.9,0,0,1,51.11,55a30.31,30.31,0,0,1-24.18,7,30,30,0,0,1-16.31-7.47A30.59,30.59,0,0,1,.49,36.56C.28,35.41.16,34.24,0,33.08V29.19c.14-1,.24-2.09.41-3.12A30.67,30.67,0,0,1,9,9.31,30.52,30.52,0,0,1,25.77.48C26.91.28,28.05.16,29.19,0Zm1.95,58.38A27.25,27.25,0,1,0,3.89,31.1,27.29,27.29,0,0,0,31.14,58.38Z"/><path d="M24.23,35.12c-1,.43-2,.79-3,1.3A2.87,2.87,0,0,1,18,36.17c-2.18-1.5-4.45-2.88-6.69-4.29a2,2,0,0,1,.36-3.7q16.21-6.33,32.43-12.7a2.05,2.05,0,0,1,2.23.18A2,2,0,0,1,47,17.79C45.75,24.4,44.56,31,43.36,37.62c-.46,2.53-.93,5.06-1.39,7.59a2,2,0,0,1-3,1.52q-4.11-2-8.2-4.1a.62.62,0,0,0-.88.13c-1.15,1.19-2.35,2.35-3.51,3.53a2,2,0,0,1-3.51-1.46c0-2.25,0-4.5,0-6.74a2.71,2.71,0,0,1,1-2.41l.52-.38ZM42.56,20.27,16.38,30.51c1.2.77,2.28,1.47,3.37,2.13.13.08.39,0,.56-.07,1-.4,1.9-.82,2.84-1.23q4.52-1.95,9-3.92a2,2,0,0,1,2.3.28,1.89,1.89,0,0,1,0,2.89C32,33,29.56,35.47,27.13,37.91c-.15.15-.35.34-.36.52-.05.6,0,1.19,0,1.78.09,0,.12,0,.13,0l1.56-1.52a1.91,1.91,0,0,1,2.34-.39c.46.21.91.45,1.36.68l6.43,3.2Z"/> </g></g></svg>