<svg xmlns="http://www.w3.org/2000/svg" width="19" height="19" viewBox="0 0 61.26 63.45">
<g data-name="Layer 2">
<g data-name="Layer 1"><path d="M6.07,63.45C4.52,62.68,4.2,62,4.51,60.28q.93-5.2,1.81-10.42a1.22,1.22,0,0,0-.2-.83A29.7,29.7,0,0,1,.29,34.88,29.86,29.86,0,0,1,7.48,10.67,29.68,29.68,0,0,1,24.12.7,30.62,30.62,0,0,1,38.36,60.25,29.87,29.87,0,0,1,19.13,59a1.48,1.48,0,0,0-1.22,0Q12.5,61.23,7.06,63.45ZM9.41,57.7c.27-.09.46-.14.64-.22,2.37-1,4.75-1.91,7.09-2.92a3.32,3.32,0,0,1,2.9,0A25.63,25.63,0,0,0,36,56.34a26.25,26.25,0,0,0-5.24-52,25.22,25.22,0,0,0-18.41,7.54c-6.47,6.4-8.94,14.2-7.55,23.18A24.65,24.65,0,0,0,10.11,47a2.78,2.78,0,0,1,.77,2.38c-.19,1-.37,2-.54,3C10,54.15,9.73,55.89,9.41,57.7Z"/><path d="M36,43A17.53,17.53,0,0,1,25.87,38.8a19.92,19.92,0,0,1-7.2-11,11.85,11.85,0,0,1,1.26-9.54,6,6,0,0,1,.43-.6,1,1,0,0,1,1.57-.11q2.16,2.12,4.29,4.29a1,1,0,0,1-.07,1.58c-.82.84-1.67,1.65-2.48,2.51a.75.75,0,0,0-.14.67A20.84,20.84,0,0,0,34.48,37.71a.69.69,0,0,0,.94-.18c.77-.82,1.57-1.59,2.36-2.38a1.06,1.06,0,0,1,1.76,0l4,4A1.07,1.07,0,0,1,43.44,41C41.75,42.31,39.41,43,36,43Z"/></g></g></svg>