<svg width="25" height="23" viewBox="0 0 25 23" fill="none" xmlns="http://www.w3.org/2000/svg">
<path d="M0.757507 7.20457C0.833265 6.75003 0.909022 6.2576 1.02266 5.80306C1.78023 3.00003 4.39387 1.10609 7.27266 1.2576C9.1666 1.37124 10.9469 2.12882 12.3484 3.41669L12.4999 3.53033C12.6893 3.37882 12.8787 3.18942 13.106 3.03791C14.2802 2.09094 15.6817 1.52276 17.1969 1.29548C20.4924 0.840937 23.5984 3.07579 24.1666 6.33336C24.5454 8.37882 24.053 10.2349 23.0302 12.0152C22.1211 13.5303 20.9848 14.894 19.659 16.0682C17.6136 17.9621 15.3787 19.5909 12.9924 20.9925C12.6893 21.1818 12.3105 21.1818 12.0075 20.9925C9.24236 19.4015 6.70448 17.4318 4.43175 15.1591C3.10599 13.8334 2.04539 12.2803 1.28781 10.5758C1.02266 9.89397 0.833265 9.17427 0.757507 8.45457C0.795386 8.45457 0.757507 8.41669 0.757507 8.37882V7.20457ZM7.08326 2.73488C5.07569 2.65912 3.29539 3.90912 2.61357 5.76518C2.04539 7.28033 2.15902 8.98488 2.87872 10.4243C3.59842 11.9015 4.62114 13.2652 5.79539 14.4015C7.80296 16.3712 9.99993 18.0758 12.4242 19.5152C12.4999 19.5909 12.6514 19.5909 12.7272 19.5152C14.5454 18.4167 16.2499 17.1667 17.8787 15.8031C19.4317 14.5152 20.7575 13 21.8181 11.2955C22.6514 9.89397 23.1439 8.41669 22.803 6.75003C22.4621 4.93185 21.4772 3.60609 19.659 3.00003C18.2575 2.54548 16.7424 2.697 15.4166 3.37882C14.5833 3.79548 13.7878 4.36366 13.1439 5.0076C12.8787 5.34851 12.3863 5.38639 12.0833 5.12124C12.0454 5.08336 12.0075 5.04548 11.9696 5.0076C11.8181 4.85609 11.6666 4.70457 11.5151 4.59094C10.303 3.45457 8.71205 2.81063 7.08326 2.73488Z" fill="#D4B293" stroke="#D4B293" stroke-width="0.378788" stroke-miterlimit="10"/>
</svg>
