<?xml version="1.0" encoding="utf-8"?>
<!-- Generator: Adobe Illustrator 24.3.0, SVG Export Plug-In . SVG Version: 6.00 Build 0)  -->
<svg width="25" height="23" version="1.1" xmlns="http://www.w3.org/2000/svg" xmlns:xlink="http://www.w3.org/1999/xlink" x="0px" y="0px"
	 viewBox="0 0 62.2 52.7" style="enable-background:new 0 0 62.2 52.7;" xml:space="preserve">
<g >
	<g>
		<path d="M0,15.7c0.2-1.2,0.4-2.5,0.7-3.7c2-7.4,8.9-12.4,16.5-12c5,0.3,9.7,2.3,13.4,5.7l0.4,0.3c0.5-0.4,1-0.9,1.6-1.3
			c3.1-2.5,6.8-4,10.8-4.6c8.7-1.2,16.9,4.7,18.4,13.3c1,5.4-0.3,10.3-3,15c-2.4,4-5.4,7.6-8.9,10.7c-5.4,5-11.3,9.3-17.6,13
			c-0.8,0.5-1.8,0.5-2.6,0c-7.3-4.2-14-9.4-20-15.4c-3.5-3.5-6.3-7.6-8.3-12.1c-0.7-1.8-1.2-3.7-1.4-5.6C0.1,19,0,18.9,0,18.8V15.7z
			" fill="#D4B293"/>
	</g>
</g>
</svg>
